<svg xmlns="http://www.w3.org/2000/svg" id="featured-icon-only" viewBox="0 0 144 120" class="w-full max-w-sm"><defs><linearGradient id="feat-icon-grad" x1="0%" y1="0%" x2="100%" y2="100%"><stop offset="0%" style="stop-color: rgb(37, 99, 235); stop-opacity: 1;"/><stop offset="100%" style="stop-color: rgb(124, 58, 237); stop-opacity: 1;"/></linearGradient></defs><g transform="translate(20, 20)"><rect x="0" y="0" width="80" height="80" rx="8" fill="url(#feat-icon-grad)"/><path d="M 8 0 Q 0 0 0 8 L 0 16 L 80 16 L 80 8 Q 80 0 72 0 Z" fill="#1e40af"/><circle cx="9" cy="8" r="2" fill="#ef4444" opacity="0.8"/><circle cx="17" cy="8" r="2" fill="#f59e0b" opacity="0.8"/><circle cx="25" cy="8" r="2" fill="#10b981" opacity="0.8"/><line x1="10" y1="30" x2="64" y2="30" stroke="white" stroke-width="2.5" opacity="0.5" stroke-linecap="round"/><line x1="10" y1="40" x2="53" y2="40" stroke="white" stroke-width="2.5" opacity="0.5" stroke-linecap="round"/><line x1="10" y1="50" x2="60" y2="50" stroke="white" stroke-width="2.5" opacity="0.5" stroke-linecap="round"/><line x1="10" y1="60" x2="56" y2="60" stroke="white" stroke-width="2.5" opacity="0.5" stroke-linecap="round"/><line x1="80" y1="27" x2="91" y2="27" stroke="#475569" stroke-width="3" stroke-linecap="round"/><line x1="80" y1="53" x2="91" y2="53" stroke="#475569" stroke-width="3" stroke-linecap="round"/><circle cx="85.5" cy="40" r="3" fill="#64748b"/><rect x="91" y="16" width="33" height="48" rx="7" fill="#14b8a6"/><rect x="96" y="24" width="23" height="2.5" rx="1.25" fill="white" opacity="0.7"/><rect x="96" y="32" width="23" height="2.5" rx="1.25" fill="white" opacity="0.7"/><rect x="96" y="40" width="23" height="2.5" rx="1.25" fill="white" opacity="0.7"/><rect x="96" y="48" width="23" height="2.5" rx="1.25" fill="white" opacity="0.7"/></g></svg>